<svg version="1.1" xmlns="http://www.w3.org/2000/svg" style="display: block;" viewBox="0 0 1392 1392" width="348" height="348" preserveAspectRatio="none">
<path transform="translate(0,0)" fill="rgb(255,255,255)" d="M 651.794 0 L 736.946 0 L 738.54 4.32835 C 743.122 5.33654 769.682 4.02145 778.577 5.32755 C 803.607 9.00257 828.474 12.7859 853.103 18.6366 C 1031.93 60.4392 1187.14 170.903 1285.22 326.173 C 1333.74 403.024 1366.52 488.74 1381.67 578.352 C 1384.13 593.323 1386.96 610.325 1388.2 625.503 C 1388.37 627.492 1386.87 638.844 1386.62 641.46 C 1389.04 641.609 1389.53 641.699 1392 641.211 L 1392 742.073 C 1386.49 743.4 1387.5 743.571 1387.49 749.371 C 1387.42 793.928 1376.49 843.79 1364.75 886.105 C 1307.77 1085.97 1164.28 1249.82 973.687 1332.68 C 914.468 1357.99 811.624 1389.19 747.17 1387.39 C 746.143 1389.48 746.346 1389.71 746.484 1392 L 642.109 1392 C 641.952 1391.41 640.784 1388.09 640.39 1388.08 C 604.616 1386.64 564.289 1378.35 529.573 1370.03 C 432.869 1346.86 342.018 1301.16 265.549 1237.62 C 255.541 1229.3 242.178 1221.96 232.257 1213.23 C 125.384 1117.6 50.7112 991.253 18.477 851.511 C 9.98851 815.919 5.24214 781.2 3.78023 744.835 C 3.6921 742.642 1.71422 741.924 0 740.737 L 0 649.13 C 3.37996 649.822 2.18183 650.015 5.27549 649.031 C 2.43331 624.61 6.79008 600.522 10.9845 576.71 C 25.6098 489.758 57.0499 406.493 103.545 331.574 C 199.051 176.801 351.317 65.5328 527.789 21.5588 C 558.384 13.7117 591.414 9.91105 622.733 5.06118 C 628.914 4.10402 642.537 5.67364 649.137 4.68999 C 650.204 4.53096 651.147 1.44774 651.794 0 z M 450.647 265.664 C 459.2 276.727 464.963 284.721 480.074 288.651 C 484.2 289.724 487.467 287.287 490.925 285.07 L 492.524 285.29 C 492.384 299.789 418.382 353.085 405.186 363.143 C 392.721 372.645 378.923 386.288 367.515 397.548 C 350.712 413.039 342.467 438.039 328.456 454.62 C 271.881 521.573 230.941 591.476 209.96 676.874 C 194.811 738.534 182.555 792.317 182.605 856.654 C 182.63 887.996 187.312 917.066 191.476 948.078 C 202.884 1032.34 217.331 1119.71 281.303 1181.54 C 361.349 1258.9 409.84 1154.01 443.787 1095.76 C 496.943 1004.57 477.307 890.012 570.479 823.192 C 577.298 818.302 601.547 798.064 609.516 796.779 C 610.829 803.87 592.248 822.896 589.043 830.193 C 539.494 943.001 551.09 1082.59 465.454 1178.54 C 446.825 1199.41 421.689 1223.49 422.136 1253.36 C 422.136 1272.47 430.919 1274.47 446.581 1282.4 C 495.753 1302.83 545.95 1314.08 597.595 1327.63 C 623.141 1334.33 644.554 1343.11 673.125 1345.08 C 693.443 1346.49 752.113 1346.94 767.213 1326.76 C 777.691 1312.76 751.528 1284.81 739.133 1281.62 C 726.213 1274.62 658.969 1244.58 654.167 1238.09 C 657.276 1231.32 670.383 1237.7 676.864 1237.88 C 681.143 1238 687.056 1237.14 690.739 1237.41 C 733.689 1240.53 784.124 1233.5 826.424 1237.66 C 825.704 1228.53 824.234 1211.67 816.012 1206.82 C 793.33 1193.44 749.274 1192.03 722.765 1187.04 C 695.404 1179.59 645.038 1173.8 631.72 1146.66 C 610.445 1103.31 643.548 1064.24 666.633 1030.64 C 692.7 988.039 720.715 943.791 741.638 898.865 C 752.211 872.067 766.112 845.001 776.156 818.165 C 789.814 777.745 796.544 729.99 775.405 690.981 C 757.78 658.456 733.958 654.167 699.855 653.861 C 616.595 653.115 541.898 704.834 477.177 751.846 C 460.527 763.94 442.406 788.345 426.35 797.007 C 432.208 785.406 454.331 758.955 463.162 747.597 C 505.852 692.692 552.502 635.137 621.179 612.843 C 691.692 589.953 772.375 626.011 838.802 648.798 C 856.629 654.427 882.914 665.909 901.609 665.306 C 956.593 663.53 1011.03 631.407 1057.86 605.101 C 1107.84 577.023 1147.82 575.851 1203.91 578.272 C 1207.43 578.424 1210.89 579.7 1214.34 580.37 C 1231.31 582.515 1252.9 582.629 1269.98 581.562 C 1287.98 580.437 1306.44 576.123 1323.81 573.343 C 1314.43 541.997 1305.36 525.067 1275.45 509.197 C 1241.1 490.97 1171.87 473.701 1135.1 486.412 C 1071.54 508.958 1008.91 522.594 941.159 518.253 C 927.465 517.376 909.181 522.072 895.201 522.406 C 836.554 523.808 778.552 493.176 732.316 459.582 C 716.338 447.973 659.678 418.034 650.035 404.258 C 650.268 401.034 650.143 399.511 653.13 397.116 C 670.139 383.48 693.949 382.609 709.875 372.019 C 727.865 359.201 719.848 334.93 733.764 319.169 C 740.731 311.279 762.21 297.173 761.742 288.264 C 759.682 249.11 744.28 230.437 762.875 190.122 C 782.797 146.928 788.105 110.082 754.061 71.9951 C 726.634 36.8474 693.547 33.5123 652.01 26.7681 C 641.77 25.1054 603.474 25.0166 592.912 26.3896 C 574.904 27.7889 548.616 40.1942 535.12 52.7415 C 495.016 90.0266 476.685 143.962 462.706 195.38 C 455.677 221.237 448.345 238.117 450.647 265.664 z"/>
</svg>